<?xml version="1.0" encoding="UTF-8"?>
<svg width="57px" height="52px" viewBox="0 0 57 52" version="1.1" xmlns="http://www.w3.org/2000/svg" xmlns:xlink="http://www.w3.org/1999/xlink">
    <!-- Generator: Sketch 52.4 (67378) - http://www.bohemiancoding.com/sketch -->
    <title>Casa dotted</title>
    <desc>Created with Sketch.</desc>
    <g id="Symbols" stroke="none" stroke-width="1" fill="none" fill-rule="evenodd">
        <g id="Footer" transform="translate(-71.000000, -76.000000)" fill="#FFFFFF" stroke="#FFFFFF" stroke-width="5">
            <g id="Group-4" transform="translate(71.000000, 76.000000)">
                <g id="Casa-dotted" transform="translate(3.000000, 3.000000)">
                    <circle id="Oval" cx="11" cy="43" r="3"></circle>
                    <circle id="Oval" cx="17" cy="43" r="3"></circle>
                    <circle id="Oval" cx="25" cy="43" r="3"></circle>
                    <circle id="Oval" cx="34" cy="43" r="3"></circle>
                    <circle id="Oval" cx="40" cy="43" r="3"></circle>
                    <circle id="Oval" cx="48" cy="43" r="3"></circle>
                    <circle id="Oval" cx="3" cy="25" r="3"></circle>
                    <circle id="Oval" cx="3" cy="34" r="3"></circle>
                    <circle id="Oval" cx="3" cy="43" r="3"></circle>
                    <circle id="Oval" cx="9" cy="11" r="3"></circle>
                    <circle id="Oval" cx="3" cy="17" r="3"></circle>
                    <circle id="Oval" transform="translate(48.000000, 34.000000) scale(-1, 1) translate(-48.000000, -34.000000) " cx="48" cy="34" r="3"></circle>
                    <circle id="Oval" transform="translate(48.000000, 25.000000) scale(-1, 1) translate(-48.000000, -25.000000) " cx="48" cy="25" r="3"></circle>
                    <circle id="Oval" transform="translate(48.000000, 17.000000) scale(-1, 1) translate(-48.000000, -17.000000) " cx="48" cy="17" r="3"></circle>
                    <circle id="Oval" transform="translate(40.000000, 11.000000) scale(-1, 1) translate(-40.000000, -11.000000) " cx="40" cy="11" r="3"></circle>
                    <circle id="Oval" transform="translate(34.000000, 7.000000) scale(-1, 1) translate(-34.000000, -7.000000) " cx="34" cy="7" r="3"></circle>
                    <circle id="Oval" cx="25" cy="3" r="3"></circle>
                    <circle id="Oval" cx="17" cy="7" r="3"></circle>
                </g>
            </g>
        </g>
    </g>
</svg>