<svg id="Layer_1" data-name="Layer 1" xmlns="http://www.w3.org/2000/svg" xmlns:xlink="http://www.w3.org/1999/xlink" width="535" height="182.5" viewBox="0 0 535 182.5"><defs><style>.cls-1,.cls-10,.cls-2,.cls-8{fill:none;}.cls-1{clip-rule:evenodd;}.cls-3{clip-path:url(#clip-path);}.cls-4{clip-path:url(#clip-path-2);}.cls-5{fill:#d92650;}.cls-6{clip-path:url(#clip-path-3);}.cls-7{fill:#ff9800;}.cls-8{stroke:#ff9800;}.cls-10,.cls-8{stroke-miterlimit:10;stroke-width:13px;}.cls-9{clip-path:url(#clip-path-6);}.cls-10{stroke:#d92650;}.cls-11{clip-path:url(#clip-path-9);}.cls-12{clip-path:url(#clip-path-12);}.cls-13{clip-path:url(#clip-path-15);}.cls-14{clip-path:url(#clip-path-18);}.cls-15{clip-path:url(#clip-path-21);}.cls-16{clip-path:url(#clip-path-24);}.cls-17{clip-path:url(#clip-path-27);}.cls-18{clip-path:url(#clip-path-30);}.cls-19{clip-path:url(#clip-path-33);}.cls-20{clip-path:url(#clip-path-36);}.cls-21{clip-path:url(#clip-path-39);}.cls-22{clip-path:url(#clip-path-42);}.cls-23{clip-path:url(#clip-path-45);}.cls-24{clip-path:url(#clip-path-48);}.cls-25{clip-path:url(#clip-path-51);}.cls-26{clip-path:url(#clip-path-54);}.cls-27{clip-path:url(#clip-path-57);}.cls-28{clip-path:url(#clip-path-60);}.cls-29{clip-path:url(#clip-path-63);}</style><clipPath id="clip-path" transform="translate(-265.5 -227.5)"><path class="cls-1" d="M729.91,376.3H700.15l-5.79,26.89H671.27L705,271.8h20L759,403.2H735.7Zm-25-22.11L715,307.36l10.09,46.83H704.9Zm-46.4,49H636.67V271.8h21.82V403.2ZM619,271.8v91q-0.15,20.49-9.28,31.36T583.52,405q-17.37,0-26.53-11t-9.17-31.85V271.8h22v90.42q0,11.19,3,16T583.52,383q7.79,0,10.69-4.74t3-15.57V271.8H619ZM533.11,388.3a40.27,40.27,0,0,1-15.47,12.5,47.66,47.66,0,0,1-20.08,4.2q-18.63,0-28.95-14T458,350.13V326.49q0-27.16,9.76-41.83T496.22,270q17.59,0,26.53,10.56t10.35,33.12H511.88q-0.89-12.54-4.3-17.1T496.89,292a13.44,13.44,0,0,0-12.84,7.85q-4,7.85-4.16,25v23.82q0,18,4.42,26.13T498.82,383q6.46,0,10.46-3.16l1.93-1.62V354.1H495.93v-20h37.18V388.3Z"/></clipPath><clipPath id="clip-path-2" transform="translate(-265.5 -227.5)"><rect class="cls-2" width="3022" height="3027"/></clipPath><clipPath id="clip-path-3" transform="translate(-265.5 -227.5)"><circle class="cls-2" cx="785.5" cy="388.5" r="8.5"/></clipPath><clipPath id="clip-path-6" transform="translate(-265.5 -227.5)"><circle class="cls-2" cx="647.5" cy="242.5" r="8.5"/></clipPath><clipPath id="clip-path-9" transform="translate(-265.5 -227.5)"><circle class="cls-2" cx="320.5" cy="291.5" r="8.5"/></clipPath><clipPath id="clip-path-12" transform="translate(-265.5 -227.5)"><circle class="cls-2" cx="299.5" cy="301.5" r="8.5"/></clipPath><clipPath id="clip-path-15" transform="translate(-265.5 -227.5)"><circle class="cls-2" cx="280.5" cy="315.5" r="8.5"/></clipPath><clipPath id="clip-path-18" transform="translate(-265.5 -227.5)"><circle class="cls-2" cx="280.5" cy="339.5" r="8.5"/></clipPath><clipPath id="clip-path-21" transform="translate(-265.5 -227.5)"><circle class="cls-2" cx="280.5" cy="363.5" r="8.5"/></clipPath><clipPath id="clip-path-24" transform="translate(-265.5 -227.5)"><circle class="cls-2" cx="280.5" cy="388.5" r="8.5"/></clipPath><clipPath id="clip-path-27" transform="translate(-265.5 -227.5)"><circle class="cls-2" cx="301.5" cy="388.5" r="8.5"/></clipPath><clipPath id="clip-path-30" transform="translate(-265.5 -227.5)"><circle class="cls-2" cx="320.5" cy="388.5" r="8.5"/></clipPath><clipPath id="clip-path-33" transform="translate(-265.5 -227.5)"><circle class="cls-2" cx="340.5" cy="388.5" r="8.5"/></clipPath><clipPath id="clip-path-36" transform="translate(-265.5 -227.5)"><circle class="cls-2" cx="361.5" cy="388.5" r="8.5"/></clipPath><clipPath id="clip-path-39" transform="translate(-265.5 -227.5)"><circle class="cls-2" cx="381.5" cy="388.5" r="8.5"/></clipPath><clipPath id="clip-path-42" transform="translate(-265.5 -227.5)"><circle class="cls-2" cx="401.5" cy="388.5" r="8.5"/></clipPath><clipPath id="clip-path-45" transform="translate(-265.5 -227.5)"><circle class="cls-2" cx="401.5" cy="363.5" r="8.5"/></clipPath><clipPath id="clip-path-48" transform="translate(-265.5 -227.5)"><circle class="cls-2" cx="401.5" cy="339.5" r="8.5"/></clipPath><clipPath id="clip-path-51" transform="translate(-265.5 -227.5)"><circle class="cls-2" cx="401.5" cy="315.5" r="8.5"/></clipPath><clipPath id="clip-path-54" transform="translate(-265.5 -227.5)"><circle class="cls-2" cx="382.5" cy="301.5" r="8.5"/></clipPath><clipPath id="clip-path-57" transform="translate(-265.5 -227.5)"><circle class="cls-2" cx="361.5" cy="291.5" r="8.5"/></clipPath><clipPath id="clip-path-60" transform="translate(-265.5 -227.5)"><circle class="cls-2" cx="340.5" cy="281.5" r="8.5"/></clipPath><clipPath id="clip-path-63" transform="translate(-265.5 -227.5)"><path class="cls-1" d="M329,291.94a8.94,8.94,0,0,0-8.94-8.94C315.13,283,329,296.87,329,291.94Z"/></clipPath></defs><title>logo</title><g class="cls-3"><g class="cls-4"><rect class="cls-5" x="187.5" y="37.5" width="311" height="145"/></g></g><g class="cls-6"><g class="cls-4"><rect class="cls-7" x="506.5" y="147.5" width="27" height="27"/></g></g><g class="cls-4"><circle class="cls-8" cx="520" cy="161" r="8.5"/></g><g class="cls-9"><g class="cls-4"><rect class="cls-5" x="368.5" y="1.5" width="27" height="27"/></g></g><g class="cls-4"><circle class="cls-10" cx="382" cy="15" r="8.5"/></g><g class="cls-11"><g class="cls-4"><rect class="cls-5" x="41.5" y="50.5" width="27" height="27"/></g></g><g class="cls-4"><circle class="cls-10" cx="55" cy="64" r="8.5"/></g><g class="cls-12"><g class="cls-4"><rect class="cls-7" x="20.5" y="60.5" width="27" height="27"/></g></g><g class="cls-4"><circle class="cls-8" cx="34" cy="74" r="8.5"/></g><g class="cls-13"><g class="cls-4"><rect class="cls-5" x="1.5" y="74.5" width="27" height="27"/></g></g><g class="cls-4"><circle class="cls-10" cx="15" cy="88" r="8.5"/></g><g class="cls-14"><g class="cls-4"><rect class="cls-7" x="1.5" y="98.5" width="27" height="27"/></g></g><g class="cls-4"><circle class="cls-8" cx="15" cy="112" r="8.5"/></g><g class="cls-15"><g class="cls-4"><rect class="cls-5" x="1.5" y="122.5" width="27" height="27"/></g></g><g class="cls-4"><circle class="cls-10" cx="15" cy="136" r="8.5"/></g><g class="cls-16"><g class="cls-4"><rect class="cls-7" x="1.5" y="147.5" width="27" height="27"/></g></g><g class="cls-4"><circle class="cls-8" cx="15" cy="161" r="8.5"/></g><g class="cls-17"><g class="cls-4"><rect class="cls-5" x="22.5" y="147.5" width="27" height="27"/></g></g><g class="cls-4"><circle class="cls-10" cx="36" cy="161" r="8.5"/></g><g class="cls-18"><g class="cls-4"><rect class="cls-7" x="41.5" y="147.5" width="27" height="27"/></g></g><g class="cls-4"><circle class="cls-8" cx="55" cy="161" r="8.5"/></g><g class="cls-19"><g class="cls-4"><rect class="cls-5" x="61.5" y="147.5" width="27" height="27"/></g></g><g class="cls-4"><circle class="cls-10" cx="75" cy="161" r="8.5"/></g><g class="cls-20"><g class="cls-4"><rect class="cls-7" x="82.5" y="147.5" width="27" height="27"/></g></g><g class="cls-4"><circle class="cls-8" cx="96" cy="161" r="8.5"/></g><g class="cls-21"><g class="cls-4"><rect class="cls-5" x="102.5" y="147.5" width="27" height="27"/></g></g><g class="cls-4"><circle class="cls-10" cx="116" cy="161" r="8.5"/></g><g class="cls-22"><g class="cls-4"><rect class="cls-7" x="122.5" y="147.5" width="27" height="27"/></g></g><g class="cls-4"><circle class="cls-8" cx="136" cy="161" r="8.5"/></g><g class="cls-23"><g class="cls-4"><rect class="cls-5" x="122.5" y="122.5" width="27" height="27"/></g></g><g class="cls-4"><circle class="cls-10" cx="136" cy="136" r="8.5"/></g><g class="cls-24"><g class="cls-4"><rect class="cls-7" x="122.5" y="98.5" width="27" height="27"/></g></g><g class="cls-4"><circle class="cls-8" cx="136" cy="112" r="8.5"/></g><g class="cls-25"><g class="cls-4"><rect class="cls-5" x="122.5" y="74.5" width="27" height="27"/></g></g><g class="cls-4"><circle class="cls-10" cx="136" cy="88" r="8.5"/></g><g class="cls-26"><g class="cls-4"><rect class="cls-7" x="103.5" y="60.5" width="27" height="27"/></g></g><g class="cls-4"><circle class="cls-8" cx="117" cy="74" r="8.5"/></g><g class="cls-27"><g class="cls-4"><rect class="cls-5" x="82.5" y="50.5" width="27" height="27"/></g></g><g class="cls-4"><circle class="cls-10" cx="96" cy="64" r="8.5"/></g><g class="cls-28"><g class="cls-4"><rect class="cls-7" x="61.5" y="40.5" width="27" height="27"/></g></g><g class="cls-4"><circle class="cls-8" cx="75" cy="54" r="8.5"/></g><g class="cls-29"><g class="cls-4"><rect class="cls-5" x="48.5" y="50.5" width="20" height="20"/></g></g><g class="cls-4"><path class="cls-10" d="M329,291.94a8.94,8.94,0,0,0-8.94-8.94C315.13,283,329,296.87,329,291.94Z" transform="translate(-265.5 -227.5)"/></g></svg>