<svg width="57" height="52" xmlns="http://www.w3.org/2000/svg"><g transform="translate(3 3)" fill="#FFF" stroke="#FFF" stroke-width="5" fill-rule="evenodd"><circle cx="11" cy="43" r="3"/><circle cx="17" cy="43" r="3"/><circle cx="25" cy="43" r="3"/><circle cx="34" cy="43" r="3"/><circle cx="40" cy="43" r="3"/><circle cx="48" cy="43" r="3"/><circle cx="3" cy="25" r="3"/><circle cx="3" cy="34" r="3"/><circle cx="3" cy="43" r="3"/><circle cx="9" cy="11" r="3"/><circle cx="3" cy="17" r="3"/><circle transform="matrix(-1 0 0 1 96 0)" cx="48" cy="34" r="3"/><circle transform="matrix(-1 0 0 1 96 0)" cx="48" cy="25" r="3"/><circle transform="matrix(-1 0 0 1 96 0)" cx="48" cy="17" r="3"/><circle transform="matrix(-1 0 0 1 80 0)" cx="40" cy="11" r="3"/><circle transform="matrix(-1 0 0 1 68 0)" cx="34" cy="7" r="3"/><circle cx="25" cy="3" r="3"/><circle cx="17" cy="7" r="3"/></g></svg>